<?xml version="1.0" standalone="yes"?>
<svg width="148" height="96">
<path style="fill:#ffffff; stroke:none;" d="M0 0L0 96L148 96L148 0L0 0z"/>
<path style="fill:#e3c692; stroke:none;" d="M53 27L54 28L53 27z"/>
<path style="fill:#7b868b; stroke:none;" d="M54 27L55 28L54 27z"/>
<path style="fill:#2b2d51; stroke:none;" d="M55 27L56 28L55 27z"/>
<path style="fill:#040101; stroke:none;" d="M46 59L46 67C49.3388 67.422 52.6181 68.0311 56 67.9815C65.1168 67.8478 72.4446 58.869 66.1065 50.3256C62.6372 45.6493 55.8647 44.6913 52.608 39.8951C49.2713 34.9811 54.5022 28.8428 59.9568 30.7608C63.1266 31.8754 64.7836 34.9243 68 36L68 28C59.3364 27.628 37.8814 28.9213 48.0093 43.8148C51.7073 49.253 59.9597 49.7688 62.777 56.0154C64.9213 60.77 59.9769 66.2692 55.0154 65.2384C51.331 64.4729 49.1546 60.737 46 59z"/>
<path style="fill:#6a6e76; stroke:none;" d="M62 27C63.2483 27.6848 63.5484 27.7488 65 28C63.7516 27.3152 63.4516 27.2512 62 27z"/>
<path style="fill:#f8ebc1; stroke:none;" d="M65.6667 27.3333C65.2222 27.7778 66.2778 27.7222 66.3333 27.6667C66.7778 27.2222 65.7222 27.2778 65.6667 27.3333z"/>
<path style="fill:#e3c692; stroke:none;" d="M75 27L76 28L75 27z"/>
<path style="fill:#a8b6be; stroke:none;" d="M76 27C81.4692 29.295 89.0987 28 95 28C89.5308 25.705 81.9013 27 76 27z"/>
<path style="fill:#f8ebc1; stroke:none;" d="M50 28L51 29L50 28z"/>
<path style="fill:#a56317; stroke:none;" d="M51 28L52 29L51 28z"/>
<path style="fill:#86b9dd; stroke:none;" d="M68 28L68 37C69.2561 34.0059 69.2561 30.9941 68 28z"/>
<path style="fill:#040101; stroke:none;" d="M76 28C81.5881 38.1582 80.9271 57.7369 76 68L88 68C84.5789 61.579 83.2475 57.361 85 50C95.0393 52.1829 110.865 42.057 100.682 31.2785C95.3489 25.6337 83.0314 28 76 28z"/>
<path style="fill:#06459a; stroke:none;" d="M96 28L97 29L96 28z"/>
<path style="fill:#86b9dd; stroke:none;" d="M97 28L98 29L97 28z"/>
<path style="fill:#cb9555; stroke:none;" d="M49 29L50 30L49 29z"/>
<path style="fill:#e3c692; stroke:none;" d="M75 29L76 30L75 29z"/>
<path style="fill:#7d531c; stroke:none;" d="M76 29L77 30L76 29z"/>
<path style="fill:#7b868b; stroke:none;" d="M99 29L100 30L99 29z"/>
<path style="fill:#a56317; stroke:none;" d="M48 30L49 31L48 30z"/>
<path style="fill:#06459a; stroke:none;" d="M54 30L55 31L54 30z"/>
<path style="fill:#a8b6be; stroke:none;" d="M55 30L56 31L55 30z"/>
<path style="fill:#cb9555; stroke:none;" d="M60 30L61 31L60 30z"/>
<path style="fill:#e3c692; stroke:none;" d="M77 30L78 31L77 30z"/>
<path style="fill:#011275; stroke:none;" d="M84 30L85 31L84 30z"/>
<path style="fill:#7b868b; stroke:none;" d="M85 30C87.0521 30.8742 88.7472 30.9528 91 31C88.9479 30.1258 87.2528 30.0472 85 30z"/>
<path style="fill:#7d531c; stroke:none;" d="M91 30L92 31L91 30z"/>
<path style="fill:#011275; stroke:none;" d="M100 30L101 31L100 30z"/>
<path style="fill:#a56317; stroke:none;" d="M47 31L48 32L47 31z"/>
<path style="fill:#86b9dd; stroke:none;" d="M53 31L54 32L53 31z"/>
<path style="fill:#a56317; stroke:none;" d="M62 31L63 32L62 31z"/>
<path style="fill:#cb9555; stroke:none;" d="M78 31L79 32L78 31z"/>
<path style="fill:#06459a; stroke:none;" d="M84 31L84 48C85.8826 43.5135 85.8826 35.4865 84 31z"/>
<path style="fill:#ffffff; stroke:none;" d="M85 31L85 48C100.137 47.6759 100.485 31.0444 85 31z"/>
<path style="fill:#cb9555; stroke:none;" d="M93 31L94 32L93 31z"/>
<path style="fill:#011275; stroke:none;" d="M101 31L102 32L101 31z"/>
<path style="fill:#e3c692; stroke:none;" d="M46 32L47 33L46 32z"/>
<path style="fill:#86b9dd; stroke:none;" d="M52 32L53 33L52 32z"/>
<path style="fill:#7d531c; stroke:none;" d="M63 32L64 33L63 32z"/>
<path style="fill:#e3c692; stroke:none;" d="M78 32L78 64C80.8572 57.1909 80.8572 38.8091 78 32z"/>
<path style="fill:#7d531c; stroke:none;" d="M95 32L96 33L95 32z"/>
<path style="fill:#4b90cd; stroke:none;" d="M102 32L103 33L102 32z"/>
<path style="fill:#7d531c; stroke:none;" d="M46 33L47 34L46 33z"/>
<path style="fill:#06459a; stroke:none;" d="M51 33L52 34L51 33z"/>
<path style="fill:#f8ebc1; stroke:none;" d="M63 33L64 34L63 33M45 34L46 35L45 34z"/>
<path style="fill:#86b9dd; stroke:none;" d="M51 34L51 38C51.7102 36.2405 51.7102 35.7595 51 34z"/>
<path style="fill:#a56317; stroke:none;" d="M64 34L65 35L64 34z"/>
<path style="fill:#cb9555; stroke:none;" d="M96 34L97 35L96 34z"/>
<path style="fill:#86b9dd; stroke:none;" d="M103 34L104 35L103 34z"/>
<path style="fill:#cb9555; stroke:none;" d="M45 35L45 41C45.9511 38.7147 45.9511 37.2853 45 35z"/>
<path style="fill:#e3c692; stroke:none;" d="M64 35L65 36L64 35z"/>
<path style="fill:#06459a; stroke:none;" d="M103 35L103 41C103.951 38.7147 103.951 37.2853 103 35z"/>
<path style="fill:#6a6e76; stroke:none;" d="M65 36C66.2483 36.6848 66.5484 36.7488 68 37C66.7516 36.3152 66.4516 36.2512 65 36z"/>
<path style="fill:#a56317; stroke:none;" d="M97 36L98 37L97 36z"/>
<path style="fill:#cb9555; stroke:none;" d="M97 37L97 42C97.8299 39.9695 97.8299 39.0305 97 37z"/>
<path style="fill:#4b90cd; stroke:none;" d="M51 38L52 39L51 38z"/>
<path style="fill:#011275; stroke:none;" d="M51 39L52 40L51 39z"/>
<path style="fill:#06459a; stroke:none;" d="M52 40L53 41L52 40z"/>
<path style="fill:#4b90cd; stroke:none;" d="M53 41L54 42L53 41M103 41L104 42L103 41z"/>
<path style="fill:#cb9555; stroke:none;" d="M46 42L47 43L46 42z"/>
<path style="fill:#06459a; stroke:none;" d="M54 42L55 43L54 42z"/>
<path style="fill:#86b9dd; stroke:none;" d="M103 42L104 43L103 42z"/>
<path style="fill:#4b90cd; stroke:none;" d="M56 43L57 44L56 43z"/>
<path style="fill:#e3c692; stroke:none;" d="M96 43L97 44L96 43z"/>
<path style="fill:#011275; stroke:none;" d="M102 43L103 44L102 43z"/>
<path style="fill:#f8ebc1; stroke:none;" d="M47 44L48 45L47 44z"/>
<path style="fill:#86b9dd; stroke:none;" d="M58 44L59 45L58 44z"/>
<path style="fill:#4b90cd; stroke:none;" d="M102 44L103 45L102 44z"/>
<path style="fill:#f8ebc1; stroke:none;" d="M48 45L49 46L48 45z"/>
<path style="fill:#86b9dd; stroke:none;" d="M60 45L61 46L60 45z"/>
<path style="fill:#a56317; stroke:none;" d="M95 45L96 46L95 45z"/>
<path style="fill:#011275; stroke:none;" d="M101 45L102 46L101 45z"/>
<path style="fill:#7d531c; stroke:none;" d="M50 46L51 47L50 46z"/>
<path style="fill:#011275; stroke:none;" d="M61 46L62 47L61 46z"/>
<path style="fill:#a8b6be; stroke:none;" d="M62 46L63 47L62 46z"/>
<path style="fill:#a56317; stroke:none;" d="M94 46L95 47L94 46z"/>
<path style="fill:#86b9dd; stroke:none;" d="M101 46L102 47L101 46z"/>
<path style="fill:#cb9555; stroke:none;" d="M51 47L52 48L51 47z"/>
<path style="fill:#4b90cd; stroke:none;" d="M63 47L64 48L63 47z"/>
<path style="fill:#a8b6be; stroke:none;" d="M91 47L92 48L91 47z"/>
<path style="fill:#7d531c; stroke:none;" d="M92 47L93 48L92 47z"/>
<path style="fill:#4b90cd; stroke:none;" d="M100 47L101 48L100 47z"/>
<path style="fill:#cb9555; stroke:none;" d="M53 48L54 49L53 48z"/>
<path style="fill:#011275; stroke:none;" d="M64 48L65 49L64 48z"/>
<path style="fill:#f8ebc1; stroke:none;" d="M65 48L66 49L65 48z"/>
<path style="fill:#011275; stroke:none;" d="M98 48L99 49L98 48z"/>
<path style="fill:#a8b6be; stroke:none;" d="M99 48L100 49L99 48z"/>
<path style="fill:#f8ebc1; stroke:none;" d="M25 55C25.7789 53.231 25.9124 51.9641 26 50L40 50C34.2558 47.5896 25.5743 47.6289 25 55z"/>
<path style="fill:#cb9555; stroke:none;" d="M55 49L56 50L55 49z"/>
<path style="fill:#a8b6be; stroke:none;" d="M66 49L67 50L66 49z"/>
<path style="fill:#011275; stroke:none;" d="M96 49L97 50L96 49z"/>
<path style="fill:#86b9dd; stroke:none;" d="M97 49L98 50L97 49z"/>
<path style="fill:#f8ebc1; stroke:none;" d="M108 55C108.779 53.2309 108.912 51.9641 109 50L123 50C117.256 47.5896 108.574 47.6289 108 55z"/>
<path style="fill:#040101; stroke:none;" d="M27 50L27 54L39 54L39 50L27 50z"/>
<path style="fill:#011275; stroke:none;" d="M39 50L39 54C39.7102 52.2405 39.7102 51.7595 39 50z"/>
<path style="fill:#a56317; stroke:none;" d="M57 50L58 51L57 50z"/>
<path style="fill:#011275; stroke:none;" d="M66 50L67 51L66 50z"/>
<path style="fill:#2b2d51; stroke:none;" d="M85.6667 50.3333C85.2222 50.7778 86.2778 50.7222 86.3333 50.6667C86.7778 50.2222 85.7222 50.2778 85.6667 50.3333z"/>
<path style="fill:#6a6e76; stroke:none;" d="M91 50C92.2484 50.6848 92.5484 50.7488 94 51C92.7517 50.3152 92.4516 50.2512 91 50z"/>
<path style="fill:#a8b6be; stroke:none;" d="M94 50L95 51L94 50z"/>
<path style="fill:#040101; stroke:none;" d="M110 50L110 54L122 54L122 50L110 50z"/>
<path style="fill:#011275; stroke:none;" d="M122 50L122 54C122.71 52.2405 122.71 51.7595 122 50z"/>
<path style="fill:#e3c692; stroke:none;" d="M58 51L59 52L58 51z"/>
<path style="fill:#06459a; stroke:none;" d="M67 51L68 52L67 51M84 51L84 63C85.5124 59.3957 85.5124 54.6043 84 51z"/>
<path style="fill:#a56317; stroke:none;" d="M60 52L61 53L60 52z"/>
<path style="fill:#86b9dd; stroke:none;" d="M68 52L69 53L68 52z"/>
<path style="fill:#a56317; stroke:none;" d="M61 53L62 54L61 53z"/>
<path style="fill:#4b90cd; stroke:none;" d="M68 53L69 54L68 53z"/>
<path style="fill:#7d531c; stroke:none;" d="M26 54C30.2165 55.7693 35.4589 55 40 55C35.7835 53.2307 30.5411 54 26 54z"/>
<path style="fill:#011275; stroke:none;" d="M68 54L68 60C68.9511 57.7147 68.9511 56.2853 68 54z"/>
<path style="fill:#7d531c; stroke:none;" d="M109 54C113.217 55.7693 118.459 55 123 55C118.783 53.2307 113.541 54 109 54z"/>
<path style="fill:#e3c692; stroke:none;" d="M62 55L63 56L62 55z"/>
<path style="fill:#a56317; stroke:none;" d="M63 57L63 61C63.7102 59.2405 63.7102 58.7595 63 57z"/>
<path style="fill:#7b868b; stroke:none;" d="M45 58C46.2484 58.6848 46.5484 58.7488 48 59C46.7516 58.3152 46.4516 58.2512 45 58z"/>
<path style="fill:#86b9dd; stroke:none;" d="M48 58L49 59L48 58z"/>
<path style="fill:#f8ebc1; stroke:none;" d="M44 59L44 67C45.1614 64.2301 45.1614 61.7698 44 59z"/>
<path style="fill:#06459a; stroke:none;" d="M48 59L49 60L48 59M68 60L69 61L68 60z"/>
<path style="fill:#4b90cd; stroke:none;" d="M49 61L50 62L49 61z"/>
<path style="fill:#f8ebc1; stroke:none;" d="M62 61L63 62L62 61z"/>
<path style="fill:#4b90cd; stroke:none;" d="M68 61L69 62L68 61z"/>
<path style="fill:#a56317; stroke:none;" d="M62 62L63 63L62 62z"/>
<path style="fill:#011275; stroke:none;" d="M50 63L51 64L50 63z"/>
<path style="fill:#cb9555; stroke:none;" d="M61 63L62 64L61 63z"/>
<path style="fill:#4b90cd; stroke:none;" d="M67 63L68 64L67 63z"/>
<path style="fill:#011275; stroke:none;" d="M84 63L85 64L84 63z"/>
<path style="fill:#86b9dd; stroke:none;" d="M52 64L53 65L52 64z"/>
<path style="fill:#f8ebc1; stroke:none;" d="M59 64L60 65L59 64z"/>
<path style="fill:#7d531c; stroke:none;" d="M60 64L61 65L60 64z"/>
<path style="fill:#011275; stroke:none;" d="M66 64L67 65L66 64z"/>
<path style="fill:#4b90cd; stroke:none;" d="M85 64L86 65L85 64z"/>
<path style="fill:#2b2d51; stroke:none;" d="M54 65L55 66L54 65z"/>
<path style="fill:#7b868b; stroke:none;" d="M55 65C56.2484 65.6848 56.5484 65.7488 58 66C56.7516 65.3152 56.4516 65.2512 55 65z"/>
<path style="fill:#011275; stroke:none;" d="M65 65L66 66L65 65z"/>
<path style="fill:#e3c692; stroke:none;" d="M76 65L77 66L76 65z"/>
<path style="fill:#6a6e76; stroke:none;" d="M86 65L87 66L86 65z"/>
<path style="fill:#4b90cd; stroke:none;" d="M64 66L65 67L64 66z"/>
<path style="fill:#a56317; stroke:none;" d="M75.3333 66.6667C75.2778 66.7222 75.2222 67.7778 75.6667 67.3333C75.7222 67.2778 75.7778 66.2222 75.3333 66.6667z"/>
<path style="fill:#4b90cd; stroke:none;" d="M88.3333 66.6667C88.2778 66.7222 88.2222 67.7778 88.6667 67.3333C88.7222 67.2778 88.7778 66.2222 88.3333 66.6667z"/>
<path style="fill:#a8b6be; stroke:none;" d="M47 67L48 68L47 67z"/>
<path style="fill:#7b868b; stroke:none;" d="M48 67L49 68L48 67z"/>
<path style="fill:#2b2d51; stroke:none;" d="M49 67L50 68L49 67M61 67L62 68L61 67z"/>
<path style="fill:#a8b6be; stroke:none;" d="M62 67L63 68L62 67z"/>
<path style="fill:#f8ebc1; stroke:none;" d="M51.6667 68.3333C51.2222 68.7778 52.2778 68.7222 52.3333 68.6667C52.7778 68.2222 51.7222 68.2778 51.6667 68.3333z"/>
<path style="fill:#a8b6be; stroke:none;" d="M53 68C54.769 68.7789 56.0359 68.9124 58 69C56.231 68.2211 54.9641 68.0876 53 68z"/>
<path style="fill:#f8ebc1; stroke:none;" d="M58.6667 68.3333C58.2222 68.7778 59.2778 68.7222 59.3333 68.6667C59.7778 68.2222 58.7222 68.2778 58.6667 68.3333z"/>
</svg>
