<?xml version="1.0" standalone="no"?>
<!DOCTYPE svg PUBLIC "-//W3C//DTD SVG 20010904//EN"
 "http://www.w3.org/TR/2001/REC-SVG-20010904/DTD/svg10.dtd">
<svg version="1.0" xmlns="http://www.w3.org/2000/svg"
 width="353.000000pt" height="158.000000pt" viewBox="0 0 353.000000 158.000000"
 preserveAspectRatio="xMidYMid meet">
<metadata>
Created by potrace 1.15, written by Peter Selinger 2001-2017
</metadata>
<g transform="translate(0.000000,158.000000) scale(0.100000,-0.100000)"
fill="#000000" stroke="none">
<path d="M1463 991 c-48 -22 -73 -62 -73 -116 0 -71 25 -91 161 -125 89 -23
129 -49 129 -86 0 -104 -218 -103 -244 2 -5 19 -13 24 -37 24 -29 0 -30 -1
-24 -32 16 -74 66 -113 157 -124 71 -8 134 10 175 51 27 27 33 41 33 74 0 85
-37 117 -169 147 -113 26 -151 73 -98 121 54 51 150 33 182 -33 12 -25 22 -34
40 -34 30 0 33 25 9 76 -32 67 -152 95 -241 55z"/>
<path d="M1810 770 l0 -230 30 0 30 0 0 95 0 95 95 0 c109 0 146 13 170 60 19
38 19 103 -1 145 -25 53 -63 65 -203 65 l-121 0 0 -230z m257 146 c25 -30 29
-53 12 -89 -16 -35 -50 -47 -134 -47 l-75 0 0 78 c0 43 3 82 8 86 4 5 43 6 86
4 71 -4 82 -8 103 -32z"/>
<path d="M400 891 c-206 -94 -215 -99 -218 -128 -3 -30 -2 -30 198 -121 253
-115 240 -111 240 -74 0 28 -7 32 -175 108 -96 43 -175 81 -175 85 0 3 79 42
175 85 174 79 175 79 175 112 0 17 -1 32 -2 31 -2 0 -100 -44 -218 -98z"/>
<path d="M910 891 c-206 -94 -215 -99 -218 -128 -3 -30 -2 -30 198 -121 253
-115 240 -111 240 -74 0 28 -7 32 -175 107 -96 44 -175 82 -175 86 0 3 79 42
175 85 174 79 175 79 175 112 0 17 -1 32 -2 31 -2 0 -100 -44 -218 -98z"/>
<path d="M2390 957 c0 -32 2 -33 175 -111 96 -44 175 -82 175 -85 0 -3 -79
-42 -175 -85 -167 -75 -175 -80 -175 -107 0 -16 3 -29 6 -29 4 0 103 43 220
96 207 94 214 98 214 126 0 24 -7 32 -42 47 -24 10 -123 55 -220 99 l-178 81
0 -32z"/>
<path d="M2910 957 c0 -32 2 -33 175 -111 96 -44 175 -82 175 -85 0 -3 -79
-42 -175 -85 -167 -75 -175 -80 -175 -107 0 -16 3 -29 6 -29 4 0 103 43 220
96 207 94 214 98 214 126 0 24 -7 32 -42 47 -24 10 -123 55 -220 99 l-178 80
0 -31z"/>
</g>
</svg>
