<?xml version="1.0" standalone="no"?>
<!DOCTYPE svg PUBLIC "-//W3C//DTD SVG 20010904//EN"
 "http://www.w3.org/TR/2001/REC-SVG-20010904/DTD/svg10.dtd">
<svg version="1.0" xmlns="http://www.w3.org/2000/svg"
 width="507.000000pt" height="357.000000pt" viewBox="0 0 507.000000 357.000000"
 preserveAspectRatio="xMidYMid meet">
<metadata>
Created by potrace 1.15, written by Peter Selinger 2001-2017
</metadata>
<g transform="translate(0.000000,357.000000) scale(0.100000,-0.100000)"
fill="#000000" stroke="none">
<path d="M2240 3454 c-25 -2 -109 -13 -187 -25 -601 -85 -1144 -344 -1485
-708 -393 -419 -488 -962 -251 -1436 205 -409 632 -744 1193 -937 126 -43 385
-105 545 -130 124 -20 178 -22 475 -22 381 0 481 10 775 83 467 116 835 308
1124 586 228 220 374 476 426 748 19 101 19 309 0 418 -95 543 -590 1025
-1305 1271 -132 45 -387 105 -548 129 -119 18 -201 22 -432 24 -157 2 -305 1
-330 -1z m760 -103 c234 -36 492 -107 702 -193 l81 -33 -627 -3 c-344 -1 -908
-1 -1252 0 l-627 3 81 33 c217 89 479 160 707 192 202 28 193 28 510 25 234
-2 316 -7 425 -24z m920 -296 l65 -34 -1447 -1 c-797 0 -1448 2 -1448 5 0 3
26 18 58 34 l57 30 1325 0 1325 0 65 -34z m270 -171 c324 -244 516 -525 585
-854 21 -98 21 -300 0 -406 -55 -287 -228 -565 -486 -779 l-77 -65 -1683 0
-1684 0 -97 85 c-200 175 -340 375 -421 602 -77 214 -77 503 0 716 96 268 276
501 543 701 l75 56 1585 0 1585 0 75 -56z m-101 -2188 c-2 -2 -38 -24 -79 -50
l-74 -46 -1406 0 -1406 0 -74 46 c-41 26 -77 48 -79 50 -2 2 699 4 1559 4 860
0 1561 -2 1559 -4z m-317 -172 c-195 -93 -505 -183 -777 -226 -123 -20 -179
-22 -465 -23 -291 0 -340 2 -467 23 -276 44 -581 133 -775 226 l-93 44 1335 0
1335 0 -93 -44z"/>
<path d="M1540 2805 c-189 -43 -346 -188 -392 -364 -58 -223 34 -428 262 -580
48 -32 161 -96 251 -141 206 -104 274 -147 333 -210 59 -63 76 -103 76 -177
-1 -102 -61 -187 -165 -235 -71 -32 -234 -32 -316 0 -197 78 -333 238 -394
465 -16 59 -21 67 -41 67 l-24 0 0 -330 0 -330 23 0 c14 1 29 13 42 33 26 41
80 77 116 77 16 0 77 -18 136 -41 186 -71 306 -85 461 -54 217 44 410 220 451
413 27 128 6 263 -59 373 -72 121 -188 205 -518 373 -214 109 -312 179 -347
246 -26 51 -29 122 -7 171 42 94 123 146 241 156 131 11 263 -43 368 -150 79
-79 124 -156 154 -257 20 -72 25 -80 47 -80 l25 0 -6 223 c-4 122 -7 255 -7
295 0 65 -2 72 -20 72 -14 0 -22 -11 -30 -41 -23 -83 -64 -96 -165 -52 -147
64 -227 85 -330 89 -65 2 -123 -1 -165 -11z"/>
<path d="M2540 2756 c0 -22 5 -24 71 -29 83 -7 127 -29 151 -77 17 -32 18 -89
18 -755 0 -666 -1 -723 -18 -755 -24 -48 -68 -70 -151 -77 -66 -5 -71 -7 -71
-29 l0 -24 444 0 c396 0 445 2 450 16 11 29 7 31 -64 37 -38 3 -86 13 -105 23
-70 33 -70 31 -73 394 l-3 327 159 6 c253 10 388 47 498 135 106 86 161 190
171 327 10 127 -32 237 -125 332 -57 59 -120 95 -221 127 -121 38 -238 46
-701 46 l-430 0 0 -24z m866 -105 c103 -46 155 -127 176 -272 14 -98 0 -222
-33 -298 -29 -69 -102 -135 -170 -155 -29 -9 -83 -16 -121 -16 l-68 0 0 386 0
387 83 -5 c54 -4 101 -13 133 -27z"/>
</g>
</svg>
